:SAMPLES-PER-SECOND 30
:FULLY-SPECIFIED
:DEGREES
86
root  -59.4859 40.7262 -18.4075 13.9284 5.66919 -0.605453
RightUpLeg  -23.5953 -16.9943 -5.24887
RightLeg  5.75271 -35.7575 7.76374
RightFoot  6.1157 0.985929 -6.13763
RightToes  0.00048216 0.542163 -0.142577
Spine  44.7912 -4.46892 8.91007
Spine1  6.74546 -0.134755 -2.8396
HEad  -24.2665 9.60451 -17.1846
LeftShoulder1  11.9615 -21.3302 -41.7339
LeftArm  -12.192 -36.1655 -40.6564
LeftForeArm  -0.430259 -33.1854 -7.38714
LeftHand  -0.25398 0.0180481 5.50724
RightShoulder  5.47688 12.9696 27.1985
RightArm  -11.2637 32.1168 24.7383
RightForeArm  -29.6687 39.7276 10.8847
RightHand  -0.0426089 -1.72462 -0.94538
LeftUpLeg  -23.0827 6.90956 5.89097
LeftLeg  -7.35257 31.4518 -9.32155
LeftFoot  9.88677 0.192666 -1.35109
LeftToes  1.06248e-005 4.65856e-005 -8.18499e-006
87
root  -59.2568 40.8863 -18.1525 12.4789 8.30846 -0.338699
RightUpLeg  -20.1077 -15.6777 -7.21675
RightLeg  3.9731 -39.4239 8.29847
RightFoot  6.4976 0.911301 -5.51404
RightToes  0.00048216 0.542163 -0.142577
Spine  42.0898 -4.55273 8.79483
Spine1  6.7503 -0.555678 -2.71774
HEad  -23.0531 13.0267 -18.077
LeftShoulder1  11.8626 -20.7693 -42.4018
LeftArm  -8.74155 -33.6424 -40.8262
LeftForeArm  -0.324724 -34.9137 -7.85799
LeftHand  -0.25398 0.0180481 5.50724
RightShoulder  5.51622 12.6702 28.0864
RightArm  -10.739 26.9019 24.9636
RightForeArm  -30.8612 43.5968 12.3868
RightHand  -0.0706689 -2.77613 -2.27103
LeftUpLeg  -21.1392 6.70914 5.16247
LeftLeg  -7.02864 36.0067 -9.6977
LeftFoot  5.75516 0.215171 -1.59127
LeftToes  1.06248e-005 4.65856e-005 -8.18499e-006
88
root  -58.9656 41.0172 -17.8901 11.0351 11.3675 -0.154007
RightUpLeg  -16.5929 -15.1725 -8.73428
RightLeg  2.29531 -42.0376 8.78764
RightFoot  6.98974 0.805438 -4.69195
RightToes  0.00048216 0.542163 -0.142577
Spine  39.4838 -4.54799 8.82286
Spine1  6.64746 -0.899739 -2.31333
HEad  -21.1411 16.7254 -20.2131
LeftShoulder1  11.6798 -20.254 -42.679
LeftArm  -4.85166 -31.8969 -42.0036
LeftForeArm  0.0453707 -35.6342 -8.04332
LeftHand  -0.25398 0.0180481 5.50724
RightShoulder  5.44265 12.1985 28.6609
RightArm  -10.61 21.3887 24.8038
RightForeArm  -31.8406 47.5702 14.168
RightHand  -0.0720479 -3.81356 -3.42293
LeftUpLeg  -19.5205 7.44327 4.50147
LeftLeg  -6.02331 43.8408 -10.5858
LeftFoot  1.81116 -0.154418 1.27474
LeftToes  1.06248e-005 4.65856e-005 -8.18499e-006
89
root  -58.5835 41.1013 -17.5985 9.38841 14.463 -0.105591
RightUpLeg  -12.8639 -15.3212 -10.0061
RightLeg  1.06855 -44.1697 9.02827
RightFoot  7.46116 0.562247 -3.08358
RightToes  0.00048216 0.542163 -0.142577
Spine  37.0322 -4.48203 8.92886
Spine1  6.46508 -1.09366 -2.11658
HEad  -19.0485 20.2546 -21.4922
LeftShoulder1  11.4245 -19.8447 -42.4701
LeftArm  -0.848175 -30.5653 -44.071
LeftForeArm  0.757596 -35.4116 -7.93898
LeftHand  -0.25398 0.0180481 5.50724
RightShoulder  5.39588 11.7622 29.3632
RightArm  -10.7034 15.6112 24.2643
RightForeArm  -32.7911 51.4896 16.2494
RightHand  -0.0592487 -4.71466 -4.926
LeftUpLeg  -17.5838 9.08947 4.20501
LeftLeg  -4.50072 52.1425 -11.5839
LeftFoot  -1.5091 -0.343425 4.04685
LeftToes  1.06248e-005 4.65856e-005 -8.18499e-006
90
root  -58.0996 41.1232 -17.2742 8.29013 17.1282 0.0658875
RightUpLeg  -9.94079 -15.5749 -11.3456
RightLeg  0.568362 -46.4833 8.81587
RightFoot  7.65301 0.301065 -1.48237
RightToes  0.00048216 0.542163 -0.142577
Spine  33.6975 -3.9488 8.33455
Spine1  6.61729 -1.16879 -1.67022
HEad  -16.8503 23.5905 -21.556
LeftShoulder1  11.2229 -19.4922 -42.3579
LeftArm  3.36854 -29.6184 -45.7442
LeftForeArm  1.10319 -34.7522 -7.7318
LeftHand  -0.25398 0.0180481 5.50724
RightShoulder  5.34538 11.3891 29.921
RightArm  -10.908 10.045 23.9651
RightForeArm  -33.7729 54.8689 18.4041
RightHand  -0.0405005 -5.26015 -7.01447
LeftUpLeg  -15.7047 10.9822 4.06246
LeftLeg  -2.99736 58.3208 -12.6782
LeftFoot  -3.83958 -0.305304 4.97561
LeftToes  1.06248e-005 4.65856e-005 -8.18499e-006
91
root  -57.5111 41.0916 -16.9469 8.20636 19.4348 0.563141
RightUpLeg  -8.50385 -16.1182 -12.8542
RightLeg  1.31977 -47.918 7.7313
RightFoot  7.66668 0.115233 -0.374006
RightToes  0.00048216 0.542163 -0.142577
Spine  29.2679 -3.00743 6.58049
Spine1  7.01272 -1.35811 -0.509273
HEad  -14.643 26.6704 -20.754
LeftShoulder1  11.0387 -18.9869 -42.6226
LeftArm  7.69125 -29.0345 -46.6501
LeftForeArm  0.840633 -34.1338 -7.57428
LeftHand  -0.25398 0.0180481 5.50724
RightShoulder  5.27513 11.1199 30.1064
RightArm  -10.997 5.05164 24.055
RightForeArm  -34.6092 57.3717 20.2939
RightHand  -0.0209872 -5.53143 -8.86708
LeftUpLeg  -14.6018 12.4692 3.33922
LeftLeg  -1.92185 60.8063 -13.4804
LeftFoot  -4.74734 -0.276499 5.28683
LeftToes  1.06248e-005 4.65856e-005 -8.18499e-006
92
root  -56.8071 41.0203 -16.6455 8.30533 21.9211 1.1886
RightUpLeg  -7.37433 -17.1307 -14.7339
RightLeg  3.42305 -48.484 5.97073
RightFoot  7.8224 -0.204209 1.52292
RightToes  0.00048216 0.542163 -0.142577
Spine  25.1516 -2.47351 4.45722
Spine1  7.11498 -1.832 0.52077
HEad  -12.6344 29.2409 -19.1241
LeftShoulder1  10.6565 -18.2753 -42.486
LeftArm  11.3086 -28.4468 -47.9694
LeftForeArm  0.755615 -33.6184 -7.43771
LeftHand  -0.25398 0.0180481 5.50724
RightShoulder  5.32445 11.1226 30.4406
RightArm  -10.6815 0.504768 23.7759
RightForeArm  -35.3884 59.189 21.8734
RightHand  0.00530101 -5.83664 -9.83939
LeftUpLeg  -14.3307 14.4003 1.50499
LeftLeg  0.757375 58.0921 -11.5154
LeftFoot  -4.63079 -0.328284 6.06824
LeftToes  1.06248e-005 4.65856e-005 -8.18499e-006
93
root  -55.9783 40.8943 -16.3759 7.64925 24.9103 1.68596
RightUpLeg  -5.24334 -18.8335 -17.2428
RightLeg  6.81975 -49.6216 3.75899
RightFoot  7.82954 -0.649493 4.17878
RightToes  0.00048216 0.542163 -0.142577
Spine  22.3309 -2.73376 3.09081
Spine1  7.0046 -2.41568 0.322751
HEad  -10.5076 30.6006 -17.0373
LeftShoulder1  10.0348 -17.556 -41.2972
LeftArm  14.0591 -27.878 -50.5548
LeftForeArm  1.11513 -32.9318 -7.23219
LeftHand  -0.25398 0.0180481 5.50724
RightShoulder  5.52688 11.3594 31.2317
RightArm  -10.0695 -3.94149 22.7473
RightForeArm  -36.3951 60.8591 23.5184
RightHand  0.0391785 -6.20274 -10.4396
LeftUpLeg  -14.2974 16.7342 -0.915649
LeftLeg  5.68789 51.7198 -6.77931
LeftFoot  -4.97512 -0.342169 6.68765
LeftToes  1.06248e-005 4.65856e-005 -8.18499e-006
